<?xml version="1.0" standalone="no"?>
<!DOCTYPE svg PUBLIC "-//W3C//DTD SVG 20010904//EN"
 "http://www.w3.org/TR/2001/REC-SVG-20010904/DTD/svg10.dtd">
<svg version="1.0" xmlns="http://www.w3.org/2000/svg"
 width="310.000000pt" height="90.000000pt" viewBox="0 0 310.000000 90.000000"
 preserveAspectRatio="xMidYMid meet">

<g transform="translate(0.000000,90.000000) scale(0.100000,-0.100000)"
fill="#000000" stroke="none">
<path d="M1891 795 c-24 -8 -61 -31 -82 -51 l-39 -38 0 42 0 43 -82 -3 -83 -3
0 -320 0 -320 85 0 85 0 5 212 c5 195 7 214 26 240 31 41 91 60 143 44 71 -21
75 -35 81 -281 l5 -215 85 0 85 0 0 240 c0 222 -2 243 -21 285 -30 64 -76 107
-136 125 -62 18 -99 18 -157 0z"/>
<path d="M2545 801 c-111 -29 -199 -103 -236 -199 -33 -87 -32 -208 3 -283 30
-65 89 -129 147 -159 22 -11 71 -25 109 -32 59 -10 79 -9 137 5 117 29 190 89
238 195 29 66 29 195 -2 274 -28 72 -94 141 -166 174 -59 27 -175 40 -230 25z
m175 -175 c51 -34 74 -93 68 -180 -4 -73 -22 -106 -78 -144 -46 -31 -124 -31
-171 1 -91 60 -105 214 -27 302 52 60 136 69 208 21z"/>
<path d="M220 710 l0 -80 155 0 155 0 -160 -182 -160 -183 2 -60 3 -60 278 -3
277 -2 0 75 0 75 -155 0 c-85 0 -155 3 -155 8 0 4 68 84 150 177 l149 170 1
73 0 72 -270 0 -270 0 0 -80z"/>
<path d="M872 532 l3 -259 30 -48 c43 -69 104 -100 199 -99 81 1 126 17 179
63 l36 32 3 -38 3 -38 80 0 80 0 0 320 0 320 -79 3 c-57 2 -82 -1 -87 -10 -5
-7 -9 -98 -9 -201 0 -203 -5 -226 -55 -265 -58 -46 -154 -33 -192 24 -15 24
-19 57 -23 239 l-5 210 -83 3 -83 3 3 -259z"/>
</g>
</svg>
